# xmcd
#
# Track frame offsets:
#	150
#	12487
#	25673
#	38755
#	50660
#	65179
#	76542
#	90000
#	100213
#	109528
#	119588
#	131367
#	142527
#	153684
#	163373
#	174052
#	184665
#	194095
#
# Disc length: 2747 seconds
#
# Revision: 1
# Processed by: cddbd v1.5.2PL0 Copyright (c) Steve Scherf et al.
# Submitted via: audiograbber 1.83.01
#
DISCID=e20ab912
DTITLE=Various Artist - Country Legends Vol. 3
DYEAR=2006
DGENRE=Country
TTITLE0=Lynn Anderson - Stand By Your Man
TTITLE1=Charlie Rich - Most Beautiful Girl In The World
TTITLE2=Hank Williams - Hey Good Lookin'
TTITLE3=Billie Jo Spears - Misty Blue
TTITLE4=Don Gibson - I Can't Stop Loving You
TTITLE5=George Jones - Talk Back Trembling Lips
TTITLE6=Kenny Rogers - Ruby Don't Take Your Love To Town
TTITLE7=Johnny Paycheck - A11
TTITLE8=Loretta Lynn - Y'All Come
TTITLE9=Don Williams - Take My Hand For A While
TTITLE10=Anne Murray - Last Thinkg On My Mind
TTITLE11=Jim Reeves - Just Call Me Lonesome
TTITLE12=Patsy Cline - That Wonderful Someone
TTITLE13=Freddy Fender - But I Do
TTITLE14=Charley Pride - Oklahoma Morning
TTITLE15=Hank Locklin - Crazy Over You
TTITLE16=Buck Owens - There Goes My Love
TTITLE17=Johnny Cash - Goodnight Irene
EXTD=
EXTT0=
EXTT1=
EXTT2=
EXTT3=
EXTT4=
EXTT5=
EXTT6=
EXTT7=
EXTT8=
EXTT9=
EXTT10=
EXTT11=
EXTT12=
EXTT13=
EXTT14=
EXTT15=
EXTT16=
EXTT17=
PLAYORDER=
